<?xml version="1.0" encoding="UTF-8" standalone="no"?>
<svg width="51px" height="51px" viewBox="0 0 51 51" version="1.1" xmlns="http://www.w3.org/2000/svg" xmlns:xlink="http://www.w3.org/1999/xlink">
    <!-- Generator: Sketch 43.2 (39069) - http://www.bohemiancoding.com/sketch -->
    <title>Group 7</title>
    <desc>Created with Sketch.</desc>
    <defs></defs>
    <g id="ui" stroke="none" stroke-width="1" fill="none" fill-rule="evenodd">
        <g id="iPhone-7" transform="translate(-162.000000, -596.000000)">
            <g id="Group-7" transform="translate(162.000000, 596.000000)">
                <circle id="Oval" fill="#A7383B" cx="25.5" cy="25.5" r="25.5"></circle>
                <g id="noun_938949_cc" opacity="0.741429571" transform="translate(13.000000, 17.000000)" fill-rule="nonzero" fill="#FFFFFF">
                    <path d="M23.8461538,0.143478261 L0.817307692,5.69130435 C0.528846154,5.73913043 0.336538462,5.97826087 0.288461538,6.31304348 C0.240384615,6.6 0.384615385,6.88695652 0.673076923,7.03043478 L9.23076923,11.8130435 L11.3461538,21.3782609 C11.3942308,21.6652174 11.6346154,21.9043478 11.9230769,21.9521739 L12.0192308,21.9521739 C12.2596154,21.9521739 12.5,21.8086957 12.6442308,21.6173913 L24.6153846,1.29130435 C24.7596154,1.05217391 24.7596154,0.717391304 24.5673077,0.47826087 C24.4230769,0.191304348 24.1346154,0.0956521739 23.8461538,0.143478261 Z M2.98076923,6.64782609 L20.7692308,2.39130435 L9.80769231,10.426087 L2.98076923,6.64782609 Z M12.3557692,19.226087 L10.6730769,11.6217391 L21.5865385,3.53913043 L12.3557692,19.226087 Z" id="Shape" style="mix-blend-mode: darken;"></path>
                </g>
            </g>
        </g>
    </g>
</svg>